# xmcd CD database file
#
# Track frame offsets:
#	150
#	18091
#	36247
#	57029
#	66650
#	85919
#	100651
#	118990
#	128579
#	144161
#	158801
#
# Disc length: 2278 seconds
#
# Revision: 0
# Processed by: cddbd v1.5.2PL0 Copyright (c) Steve Scherf et al.
# Submitted via: CDex 1.70beta3
#
DISCID=8c08e40b
DTITLE=Joe Albany - The Albany Touch+3
DYEAR=1977
DGENRE=Jazz
TTITLE0=A.b.blues 2
TTITLE1=Embraceable You
TTITLE2=Born To Be Blue
TTITLE3=You Stepped Out Of A Dream
TTITLE4=Joe's Blues
TTITLE5=Autumn Leaves
TTITLE6=Time On My Hands
TTITLE7=A Night In Tunisia
TTITLE8=I'd Rather Have A Memory Than Dream
TTITLE9=For Heaven's Sake
TTITLE10=Almost Like Being in Love
EXTD=YEAR: 1977
EXTT0=
EXTT1=
EXTT2=
EXTT3=
EXTT4=
EXTT5=
EXTT6=
EXTT7=
EXTT8=
EXTT9=
EXTT10=
PLAYORDER=
